<svg xmlns="http://www.w3.org/2000/svg" width="512" height="256" fill="none" viewBox="0 0 512 256"><g clip-path="url(#a)"><path fill="#fff" d="M0 0h512v256H0z"/><path fill="#1f232d" d="M0 0h512v256H0z"/><path fill="#404759" d="M26.117 200.33a10.11 10.11 0 0 1 11.88 0l16.391 11.909a10.11 10.11 0 0 1 3.671 11.298l-6.261 19.27a10.105 10.105 0 0 1-9.61 6.983H21.925a10.105 10.105 0 0 1-9.611-6.983l-6.261-19.27a10.11 10.11 0 0 1 3.67-11.298z"/><path fill="#2c3240" d="M86.982 208.54c2.55-4.443 3.824-6.665 5.37-7.603a7.03 7.03 0 0 1 7.295 0c1.545.938 2.82 3.16 5.369 7.603l13.772 24.003c2.525 4.4 3.787 6.6 3.821 8.398a7.01 7.01 0 0 1-3.643 6.278c-1.578.865-4.117.865-9.195.865H82.227c-5.077 0-7.616 0-9.194-.865a7.01 7.01 0 0 1-3.643-6.278c.033-1.798 1.296-3.998 3.82-8.398z"/><path fill="#626b81" d="M156.08 199.274c1.775-2.962 6.066-2.962 7.84 0l1.996 3.33a4.57 4.57 0 0 0 5.031 2.084l3.765-.944c3.349-.839 6.383 2.195 5.544 5.544l-.943 3.766a4.57 4.57 0 0 0 2.083 5.031l3.331 1.995c2.961 1.775 2.961 6.066 0 7.84l-3.331 1.996a4.57 4.57 0 0 0-2.083 5.031l.943 3.765c.839 3.349-2.195 6.383-5.544 5.544l-3.765-.943a4.57 4.57 0 0 0-5.031 2.083l-1.996 3.331c-1.774 2.961-6.065 2.961-7.84 0l-1.995-3.331a4.57 4.57 0 0 0-5.031-2.083l-3.766.943c-3.349.839-6.383-2.195-5.544-5.544l.944-3.765a4.57 4.57 0 0 0-2.084-5.031l-3.33-1.996c-2.962-1.774-2.962-6.065 0-7.84l3.33-1.995a4.57 4.57 0 0 0 2.084-5.031l-.944-3.766c-.839-3.349 2.195-6.383 5.544-5.544l3.766.944a4.57 4.57 0 0 0 5.031-2.084zm96.585 17.497c1.313 2.276 1.97 3.413 2.302 4.602a9.8 9.8 0 0 1 0 5.254c-.332 1.188-.989 2.326-2.302 4.601l-4.002 6.932c-1.313 2.276-1.97 3.414-2.833 4.295a9.76 9.76 0 0 1-4.55 2.627c-1.195.307-2.508.307-5.135.307h-24.289c-2.627 0-3.941 0-5.136-.307a9.76 9.76 0 0 1-4.549-2.627c-.864-.881-1.52-2.019-2.834-4.295l-4.001-6.932c-1.314-2.275-1.971-3.413-2.302-4.601a9.77 9.77 0 0 1 0-5.254c.331-1.189.988-2.326 2.302-4.602l4.001-6.932c1.314-2.275 1.97-3.413 2.834-4.295a9.77 9.77 0 0 1 4.549-2.627c1.195-.307 2.509-.307 5.136-.307h24.289c2.627 0 3.94 0 5.135.307a9.77 9.77 0 0 1 4.55 2.627c.863.882 1.52 2.02 2.833 4.295zm22.891-12.681c8.934-8.934 23.419-8.934 32.353 0s8.934 23.42 0 32.354l-7.466 7.466c-8.934 8.934-23.419 8.934-32.354 0s-8.934-23.419 0-32.354z"/><path fill="#404759" d="M326.736 222.797c0-13.288 11.311-24.06 25.263-24.06s25.264 10.772 25.264 24.06v16.842c0 5.315-4.525 9.624-10.106 9.624-1.654 0-3.215-.378-4.593-1.05-.703-.341-1.403-.716-2.107-1.093-2.476-1.325-4.989-2.669-7.738-2.669h-1.439c-2.749 0-5.262 1.344-7.738 2.669-.704.377-1.404.752-2.107 1.093a10.46 10.46 0 0 1-4.593 1.05c-5.581 0-10.106-4.309-10.106-9.624z"/><path fill="#2c3240" d="M406.47 203.074c2.958-2.149 4.437-3.224 6.014-3.758a10.97 10.97 0 0 1 7.032 0c1.576.534 3.055 1.609 6.014 3.758l6.652 4.832c1.757 1.276 2.635 1.914 3.351 2.68a10.95 10.95 0 0 1 2.332 3.846c.347.989.507 2.063.825 4.21l1.232 8.306c.559 3.767.838 5.651.556 7.349a10.95 10.95 0 0 1-3.495 6.361c-1.282 1.149-3.022 1.924-6.501 3.474l-7.884 3.511c-2.1.935-3.15 1.403-4.23 1.642-1.56.346-3.177.346-4.737 0-1.08-.239-2.129-.707-4.229-1.642l-7.884-3.511c-3.48-1.55-5.22-2.325-6.502-3.474a10.95 10.95 0 0 1-3.495-6.361c-.282-1.698-.002-3.582.556-7.349l1.232-8.306c.319-2.147.478-3.221.826-4.21a10.9 10.9 0 0 1 2.331-3.846c.716-.766 1.594-1.404 3.351-2.68z"/><path fill="#626b81" d="M454.547 211.086c0-7.379 5.981-13.36 13.359-13.36h24.187c7.378 0 13.359 5.981 13.359 13.36 0 6.084-4.068 11.219-9.632 12.832a.09.09 0 0 0-.062.082c0 .038.025.071.062.081 5.564 1.614 9.632 6.748 9.632 12.833 0 7.378-5.981 13.359-13.359 13.359h-24.187c-7.378 0-13.359-5.981-13.359-13.359 0-6.045 4.015-11.152 9.524-12.801a.12.12 0 0 0 .085-.113.12.12 0 0 0-.085-.114c-5.509-1.648-9.524-6.755-9.524-12.8"/><path fill="#2c3240" d="M282.117 8.33a10.105 10.105 0 0 1 11.879 0l16.392 11.91a10.105 10.105 0 0 1 3.671 11.297l-6.261 19.27a10.11 10.11 0 0 1-9.611 6.983h-20.261a10.11 10.11 0 0 1-9.611-6.983l-6.261-19.27a10.105 10.105 0 0 1 3.671-11.298z"/><path fill="#626b81" d="M342.982 16.54c2.549-4.443 3.824-6.665 5.37-7.603a7.03 7.03 0 0 1 7.295 0c1.545.938 2.82 3.16 5.369 7.603l13.772 24.002c2.525 4.4 3.787 6.601 3.821 8.399a7.01 7.01 0 0 1-3.643 6.278c-1.578.865-4.117.865-9.195.865h-27.544c-5.077 0-7.616 0-9.194-.865a7.01 7.01 0 0 1-3.643-6.278c.033-1.798 1.296-3.998 3.82-8.399zm69.098-9.266c1.775-2.962 6.066-2.962 7.84 0l1.996 3.33a4.57 4.57 0 0 0 5.031 2.084l3.765-.944c3.349-.84 6.383 2.195 5.544 5.544l-.943 3.766a4.57 4.57 0 0 0 2.083 5.03l3.331 1.996c2.961 1.775 2.961 6.066 0 7.84l-3.331 1.996a4.57 4.57 0 0 0-2.083 5.03l.943 3.766c.839 3.35-2.195 6.383-5.544 5.544l-3.765-.944a4.57 4.57 0 0 0-5.031 2.084l-1.996 3.33c-1.774 2.962-6.065 2.962-7.84 0l-1.995-3.33a4.57 4.57 0 0 0-5.031-2.084l-3.766.944c-3.349.84-6.383-2.195-5.544-5.544l.944-3.765a4.57 4.57 0 0 0-2.084-5.031l-3.33-1.996c-2.962-1.774-2.962-6.065 0-7.84l3.33-1.995a4.57 4.57 0 0 0 2.084-5.031l-.944-3.766c-.839-3.349 2.195-6.383 5.544-5.544l3.766.944a4.57 4.57 0 0 0 5.031-2.084z"/><path fill="#404759" d="M486.802 8.5c10.563-4.587 21.285 6.134 16.697 16.698l-.759 1.746a12.7 12.7 0 0 0 0 10.112l.759 1.747c4.588 10.563-6.134 21.284-16.697 16.696l-1.747-.758a12.7 12.7 0 0 0-10.111 0l-1.747.758c-10.563 4.588-21.284-6.133-16.697-16.696l.759-1.747a12.7 12.7 0 0 0 0-10.112l-.759-1.746c-4.587-10.564 6.134-21.285 16.697-16.697l1.747.758a12.7 12.7 0 0 0 10.112 0z"/><path fill="#626b81" d="M19.556 12.09c8.934-8.934 23.419-8.934 32.353 0 8.934 8.935 8.934 23.42 0 32.354l-7.466 7.466c-8.934 8.934-23.42 8.934-32.354 0s-8.934-23.42 0-32.353z"/><path fill="#2c3240" d="M70.736 30.797c0-13.288 11.311-24.06 25.263-24.06s25.264 10.772 25.264 24.06v16.842c0 5.315-4.525 9.624-10.106 9.624-1.654 0-3.215-.378-4.593-1.05a61 61 0 0 1-2.107-1.093c-2.476-1.325-4.99-2.669-7.738-2.669H95.28c-2.749 0-5.262 1.344-7.738 2.67-.704.376-1.404.75-2.107 1.093a10.5 10.5 0 0 1-4.593 1.05c-5.581 0-10.106-4.31-10.106-9.625z"/><path fill="#626b81" d="M150.47 11.074c2.958-2.15 4.437-3.224 6.014-3.758a10.96 10.96 0 0 1 7.032 0c1.576.534 3.055 1.609 6.014 3.758l6.652 4.832c1.757 1.276 2.635 1.914 3.351 2.68a11 11 0 0 1 2.332 3.846c.347.989.507 2.063.825 4.21l1.232 8.305c.559 3.768.838 5.652.556 7.35a10.95 10.95 0 0 1-3.495 6.361c-1.282 1.149-3.022 1.924-6.501 3.474l-7.884 3.511c-2.1.935-3.15 1.403-4.23 1.642-1.56.346-3.177.346-4.737 0-1.08-.239-2.129-.706-4.229-1.642l-7.884-3.511c-3.48-1.55-5.22-2.325-6.502-3.474a10.95 10.95 0 0 1-3.495-6.361c-.282-1.698-.002-3.582.556-7.35l1.232-8.305c.319-2.147.478-3.221.826-4.21a10.9 10.9 0 0 1 2.331-3.846c.716-.766 1.594-1.404 3.351-2.68zm48.077 8.012c0-7.379 5.981-13.36 13.359-13.36h24.187c7.378 0 13.359 5.981 13.359 13.36 0 6.084-4.068 11.219-9.632 12.832a.085.085 0 0 0 0 .163c5.564 1.613 9.632 6.748 9.632 12.833 0 7.378-5.981 13.36-13.359 13.36h-24.187c-7.378 0-13.359-5.982-13.359-13.36 0-6.045 4.015-11.152 9.524-12.8a.12.12 0 0 0 .085-.114.12.12 0 0 0-.085-.114c-5.509-1.648-9.524-6.755-9.524-12.8"/><path fill="#2c3240" d="M410.117 72.33a10.105 10.105 0 0 1 11.879 0l16.392 11.91a10.105 10.105 0 0 1 3.671 11.297l-6.261 19.27a10.11 10.11 0 0 1-9.611 6.983h-20.261a10.11 10.11 0 0 1-9.611-6.983l-6.261-19.27a10.105 10.105 0 0 1 3.671-11.298zm60.865 8.21c2.549-4.443 3.824-6.665 5.37-7.604a7.03 7.03 0 0 1 7.295 0c1.545.939 2.82 3.16 5.369 7.603l13.772 24.004c2.525 4.4 3.787 6.6 3.821 8.398a7.01 7.01 0 0 1-3.643 6.278c-1.578.865-4.117.865-9.195.865h-27.544c-5.077 0-7.616 0-9.194-.865a7.01 7.01 0 0 1-3.643-6.278c.033-1.798 1.296-3.998 3.82-8.398zM28.08 71.274c1.775-2.962 6.066-2.962 7.84 0l1.996 3.33a4.57 4.57 0 0 0 5.03 2.084l3.766-.944c3.35-.84 6.383 2.195 5.544 5.544l-.944 3.766a4.57 4.57 0 0 0 2.084 5.03l3.33 1.996c2.962 1.775 2.962 6.066 0 7.84l-3.33 1.996a4.57 4.57 0 0 0-2.084 5.031l.944 3.765c.84 3.349-2.195 6.383-5.544 5.544l-3.765-.943a4.57 4.57 0 0 0-5.031 2.083l-1.996 3.331c-1.774 2.961-6.065 2.961-7.84 0l-1.995-3.331a4.57 4.57 0 0 0-5.031-2.083l-3.766.943c-3.349.839-6.383-2.195-5.544-5.544l.944-3.765a4.57 4.57 0 0 0-2.084-5.031l-3.33-1.996c-2.962-1.774-2.962-6.065 0-7.84l3.33-1.995a4.57 4.57 0 0 0 2.084-5.031l-.944-3.766c-.84-3.349 2.195-6.383 5.544-5.544l3.766.944a4.57 4.57 0 0 0 5.03-2.084z"/><path fill="#626b81" d="M124.665 88.771c1.313 2.276 1.97 3.413 2.302 4.602a9.8 9.8 0 0 1 0 5.254c-.332 1.188-.989 2.326-2.302 4.601l-4.002 6.932c-1.313 2.276-1.97 3.414-2.833 4.295a9.76 9.76 0 0 1-4.55 2.627c-1.195.307-2.508.307-5.135.307h-24.29c-2.626 0-3.94 0-5.135-.307a9.76 9.76 0 0 1-4.55-2.627c-.863-.881-1.52-2.019-2.833-4.295l-4.002-6.932c-1.313-2.275-1.97-3.413-2.301-4.601a9.77 9.77 0 0 1 0-5.254c.331-1.189.988-2.326 2.301-4.602l4.002-6.932c1.314-2.275 1.97-3.413 2.834-4.295a9.77 9.77 0 0 1 4.549-2.627c1.195-.307 2.509-.307 5.136-.307h24.289c2.627 0 3.94 0 5.135.307a9.77 9.77 0 0 1 4.55 2.627c.863.882 1.52 2.02 2.833 4.295zM6.736 158.797c0-13.288 11.311-24.06 25.264-24.06s25.263 10.772 25.263 24.06v16.842c0 5.315-4.525 9.624-10.106 9.624a10.46 10.46 0 0 1-4.593-1.05 60 60 0 0 1-2.107-1.093c-2.476-1.325-4.99-2.669-7.738-2.669H31.28c-2.749 0-5.262 1.344-7.738 2.669-.704.377-1.404.752-2.107 1.093a10.46 10.46 0 0 1-4.593 1.05c-5.581 0-10.106-4.309-10.106-9.624z"/><path fill="#2c3240" d="M86.47 139.074c2.958-2.149 4.437-3.224 6.014-3.758a10.97 10.97 0 0 1 7.032 0c1.576.534 3.055 1.609 6.014 3.758l6.652 4.832c1.757 1.276 2.635 1.914 3.351 2.68a10.95 10.95 0 0 1 2.332 3.846c.347.989.507 2.063.825 4.21l1.232 8.306c.559 3.767.838 5.651.556 7.349a10.95 10.95 0 0 1-3.495 6.361c-1.282 1.149-3.022 1.924-6.501 3.474l-7.884 3.511c-2.1.935-3.15 1.403-4.23 1.642a10.9 10.9 0 0 1-4.737 0c-1.08-.239-2.13-.707-4.23-1.642l-7.883-3.511c-3.48-1.55-5.22-2.325-6.502-3.474a10.95 10.95 0 0 1-3.495-6.361c-.282-1.698-.002-3.582.556-7.349l1.232-8.306c.319-2.147.478-3.221.826-4.21a10.95 10.95 0 0 1 2.331-3.846c.716-.766 1.595-1.404 3.351-2.68z"/><path fill="#626b81" d="M444.665 152.771c1.313 2.276 1.97 3.413 2.302 4.602a9.8 9.8 0 0 1 0 5.254c-.332 1.188-.989 2.326-2.302 4.601l-4.002 6.932c-1.313 2.276-1.97 3.414-2.833 4.295a9.76 9.76 0 0 1-4.55 2.627c-1.195.307-2.508.307-5.135.307h-24.289c-2.627 0-3.941 0-5.136-.307a9.76 9.76 0 0 1-4.549-2.627c-.864-.881-1.52-2.019-2.834-4.295l-4.001-6.932c-1.314-2.275-1.971-3.413-2.302-4.601a9.77 9.77 0 0 1 0-5.254c.331-1.189.988-2.326 2.302-4.602l4.001-6.932c1.314-2.275 1.97-3.413 2.834-4.295a9.77 9.77 0 0 1 4.549-2.627c1.195-.307 2.509-.307 5.136-.307h24.289c2.627 0 3.94 0 5.135.307a9.77 9.77 0 0 1 4.55 2.627c.863.882 1.52 2.02 2.833 4.295zm22.891-12.681c8.934-8.934 23.419-8.934 32.353 0s8.934 23.42 0 32.354l-7.466 7.466c-8.934 8.934-23.419 8.934-32.354 0s-8.934-23.419 0-32.354z"/><g filter="url(#b)"><path fill="#ee728d" d="m206.46 140.512.864-6.96h3.408l.576 6.096q1.968.528 3.744.528 3.12 0 4.752-1.392 1.632-1.44 1.632-3.792 0-1.008-.336-1.968t-1.344-2.064q-1.008-1.152-3.024-2.64-2.496-1.872-3.888-3.504t-1.92-3.168a9.5 9.5 0 0 1-.528-3.12q0-2.736 1.392-4.8 1.44-2.064 3.888-3.216 2.496-1.152 5.712-1.152 2.208 0 4.416.576 2.208.528 4.032 1.728l-1.008 6.72h-3.456l-.384-5.904a6.8 6.8 0 0 0-1.488-.384 10 10 0 0 0-1.392-.096q-3.024 0-4.848 1.248-1.776 1.248-1.776 3.648 0 1.68 1.008 3.168 1.056 1.44 3.696 3.36t4.08 3.552q1.44 1.584 2.016 3.12.576 1.488.576 3.12 0 2.928-1.488 5.088-1.44 2.16-4.032 3.36-2.592 1.152-6 1.152-2.352 0-4.8-.624-2.4-.624-4.08-1.68m25.465-4.848 3.072-14.112h-4.272l.384-2.112 4.704-.48 2.688-6.48h3.456l-1.392 6.528h5.52l-.432 2.832-5.616-.192-2.88 13.728q-.384 1.68-.384 2.4 0 .528.288.816.336.24.72.24 1.488 0 4.128-3.216l1.296.96a21 21 0 0 1-2.304 2.928 12 12 0 0 1-2.928 2.304 7 7 0 0 1-3.408.864q-1.344 0-2.256-.72t-.912-2.16q0-.768.144-1.776t.384-2.352m22.272 7.008q-2.4 0-4.416-.96-1.968-1.008-3.12-2.976t-1.152-4.896q0-3.12 1.008-5.904 1.056-2.784 2.88-4.944t4.224-3.408 5.184-1.248q3.696 0 6.096 2.208 2.4 2.16 2.4 6.576 0 3.072-1.008 5.904a17.3 17.3 0 0 1-2.784 4.992 13.3 13.3 0 0 1-4.176 3.408 11 11 0 0 1-5.136 1.248m.528-2.256q1.584 0 2.88-1.152 1.344-1.2 2.304-3.168.96-2.016 1.44-4.416.528-2.448.528-4.896 0-3.408-1.008-4.8t-2.64-1.392q-1.584 0-2.928 1.152-1.296 1.152-2.304 3.12-.96 1.92-1.536 4.368a23.6 23.6 0 0 0-.528 4.992q0 3.408 1.056 4.8 1.104 1.392 2.736 1.392m15.445 1.488 3.984-18.96-4.032-.432.24-1.632 8.544-2.592.768.624-1.152 6.816a37 37 0 0 1 2.304-3.696q1.248-1.68 2.592-2.688t2.688-1.008q1.152 0 2.064.48.96.48 1.44 1.44-.048 1.44-.768 2.4t-2.112.96q-.816 0-1.632-.432-.768-.432-1.584-1.2a22 22 0 0 0-3.264 3.888 37 37 0 0 0-2.496 4.416l-.336 1.536a286 286 0 0 0-1.008 5.088q-.48 2.496-.96 5.088l-4.704.384zm30.643-21.216q-1.056 0-2.304.864-1.2.864-2.304 2.352t-1.872 3.456a13.8 13.8 0 0 0-.912 4.128q3.648-1.152 5.712-2.544 2.112-1.392 3.024-2.88t.912-2.784q0-1.248-.672-1.92-.624-.672-1.584-.672m-4.656 21.984q-3.456 0-5.664-2.304-2.16-2.304-2.16-6.672 0-3.024 1.008-5.76 1.056-2.784 2.88-4.944 1.872-2.16 4.272-3.408a11.36 11.36 0 0 1 5.232-1.248q2.736 0 4.224 1.296 1.488 1.248 1.488 3.504 0 1.776-1.392 3.648t-4.464 3.6q-3.072 1.68-8.16 3.072.24 2.64 1.488 3.888 1.248 1.2 3.312 1.2 2.208 0 3.84-1.056 1.632-1.104 2.688-2.448l1.2.912a15.5 15.5 0 0 1-2.448 3.264 12 12 0 0 1-3.312 2.496q-1.824.96-4.032.96"/></g></g><defs><clipPath id="a"><path fill="#fff" d="M0 0h512v256H0z"/></clipPath><filter id="b" width="116.977" height="49.456" x="198.461" y="103.36" color-interpolation-filters="sRGB" filterUnits="userSpaceOnUse"><feFlood flood-opacity="0" result="BackgroundImageFix"/><feColorMatrix in="SourceAlpha" result="hardAlpha" values="0 0 0 0 0 0 0 0 0 0 0 0 0 0 0 0 0 0 127 0"/><feOffset dy="2"/><feGaussianBlur stdDeviation="4"/><feComposite in2="hardAlpha" operator="out"/><feColorMatrix values="0 0 0 0 0 0 0 0 0 0 0 0 0 0 0 0 0 0 0.5 0"/><feBlend in2="BackgroundImageFix" result="effect1_dropShadow_2094_822"/><feBlend in="SourceGraphic" in2="effect1_dropShadow_2094_822" result="shape"/></filter></defs></svg>