<svg xmlns="http://www.w3.org/2000/svg" width="512" height="256" fill="none" viewBox="0 0 512 256"><g clip-path="url(#a)"><path fill="#fff" d="M0 0h512v256H0z"/><path fill="#1f232d" d="M0 0h512v256H0z"/><path fill="#404759" d="M26.117 200.33a10.11 10.11 0 0 1 11.88 0l16.391 11.909a10.11 10.11 0 0 1 3.671 11.298l-6.261 19.27a10.105 10.105 0 0 1-9.61 6.983H21.925a10.105 10.105 0 0 1-9.611-6.983l-6.261-19.27a10.11 10.11 0 0 1 3.67-11.298z"/><path fill="#2c3240" d="M86.982 208.54c2.55-4.443 3.824-6.665 5.37-7.603a7.03 7.03 0 0 1 7.295 0c1.545.938 2.82 3.16 5.369 7.603l13.772 24.003c2.525 4.4 3.787 6.6 3.821 8.398a7.01 7.01 0 0 1-3.643 6.278c-1.578.865-4.117.865-9.195.865H82.227c-5.077 0-7.616 0-9.194-.865a7.01 7.01 0 0 1-3.643-6.278c.033-1.798 1.296-3.998 3.82-8.398z"/><path fill="#626b81" d="M156.08 199.274c1.775-2.962 6.066-2.962 7.84 0l1.996 3.33a4.57 4.57 0 0 0 5.031 2.084l3.765-.944c3.349-.839 6.383 2.195 5.544 5.544l-.943 3.766a4.57 4.57 0 0 0 2.083 5.031l3.331 1.995c2.961 1.775 2.961 6.066 0 7.84l-3.331 1.996a4.57 4.57 0 0 0-2.083 5.031l.943 3.765c.839 3.349-2.195 6.383-5.544 5.544l-3.765-.943a4.57 4.57 0 0 0-5.031 2.083l-1.996 3.331c-1.774 2.961-6.065 2.961-7.84 0l-1.995-3.331a4.57 4.57 0 0 0-5.031-2.083l-3.766.943c-3.349.839-6.383-2.195-5.544-5.544l.944-3.765a4.57 4.57 0 0 0-2.084-5.031l-3.33-1.996c-2.962-1.774-2.962-6.065 0-7.84l3.33-1.995a4.57 4.57 0 0 0 2.084-5.031l-.944-3.766c-.839-3.349 2.195-6.383 5.544-5.544l3.766.944a4.57 4.57 0 0 0 5.031-2.084zm96.585 17.497c1.313 2.276 1.97 3.413 2.302 4.602a9.8 9.8 0 0 1 0 5.254c-.332 1.188-.989 2.326-2.302 4.601l-4.002 6.932c-1.313 2.276-1.97 3.414-2.833 4.295a9.76 9.76 0 0 1-4.55 2.627c-1.195.307-2.508.307-5.135.307h-24.289c-2.627 0-3.941 0-5.136-.307a9.76 9.76 0 0 1-4.549-2.627c-.864-.881-1.52-2.019-2.834-4.295l-4.001-6.932c-1.314-2.275-1.971-3.413-2.302-4.601a9.77 9.77 0 0 1 0-5.254c.331-1.189.988-2.326 2.302-4.602l4.001-6.932c1.314-2.275 1.97-3.413 2.834-4.295a9.77 9.77 0 0 1 4.549-2.627c1.195-.307 2.509-.307 5.136-.307h24.289c2.627 0 3.94 0 5.135.307a9.77 9.77 0 0 1 4.55 2.627c.863.882 1.52 2.02 2.833 4.295zm22.891-12.681c8.934-8.934 23.419-8.934 32.353 0s8.934 23.42 0 32.354l-7.466 7.466c-8.934 8.934-23.419 8.934-32.354 0s-8.934-23.419 0-32.354z"/><path fill="#404759" d="M326.736 222.797c0-13.288 11.311-24.06 25.263-24.06s25.264 10.772 25.264 24.06v16.842c0 5.315-4.525 9.624-10.106 9.624-1.654 0-3.215-.378-4.593-1.05-.703-.341-1.403-.716-2.107-1.093-2.476-1.325-4.989-2.669-7.738-2.669h-1.439c-2.749 0-5.262 1.344-7.738 2.669-.704.377-1.404.752-2.107 1.093a10.46 10.46 0 0 1-4.593 1.05c-5.581 0-10.106-4.309-10.106-9.624z"/><path fill="#2c3240" d="M406.47 203.074c2.958-2.149 4.437-3.224 6.014-3.758a10.97 10.97 0 0 1 7.032 0c1.576.534 3.055 1.609 6.014 3.758l6.652 4.832c1.757 1.276 2.635 1.914 3.351 2.68a10.95 10.95 0 0 1 2.332 3.846c.347.989.507 2.063.825 4.21l1.232 8.306c.559 3.767.838 5.651.556 7.349a10.95 10.95 0 0 1-3.495 6.361c-1.282 1.149-3.022 1.924-6.501 3.474l-7.884 3.511c-2.1.935-3.15 1.403-4.23 1.642-1.56.346-3.177.346-4.737 0-1.08-.239-2.129-.707-4.229-1.642l-7.884-3.511c-3.48-1.55-5.22-2.325-6.502-3.474a10.95 10.95 0 0 1-3.495-6.361c-.282-1.698-.002-3.582.556-7.349l1.232-8.306c.319-2.147.478-3.221.826-4.21a10.9 10.9 0 0 1 2.331-3.846c.716-.766 1.594-1.404 3.351-2.68z"/><path fill="#626b81" d="M454.547 211.086c0-7.379 5.981-13.36 13.359-13.36h24.187c7.378 0 13.359 5.981 13.359 13.36 0 6.084-4.068 11.219-9.632 12.832a.09.09 0 0 0-.062.082c0 .038.025.071.062.081 5.564 1.614 9.632 6.748 9.632 12.833 0 7.378-5.981 13.359-13.359 13.359h-24.187c-7.378 0-13.359-5.981-13.359-13.359 0-6.045 4.015-11.152 9.524-12.801a.12.12 0 0 0 .085-.113.12.12 0 0 0-.085-.114c-5.509-1.648-9.524-6.755-9.524-12.8"/><path fill="#2c3240" d="M282.117 8.33a10.105 10.105 0 0 1 11.879 0l16.392 11.91a10.105 10.105 0 0 1 3.671 11.297l-6.261 19.27a10.11 10.11 0 0 1-9.611 6.983h-20.261a10.11 10.11 0 0 1-9.611-6.983l-6.261-19.27a10.105 10.105 0 0 1 3.671-11.298z"/><path fill="#626b81" d="M342.982 16.54c2.549-4.443 3.824-6.665 5.37-7.603a7.03 7.03 0 0 1 7.295 0c1.545.938 2.82 3.16 5.369 7.603l13.772 24.002c2.525 4.4 3.787 6.601 3.821 8.399a7.01 7.01 0 0 1-3.643 6.278c-1.578.865-4.117.865-9.195.865h-27.544c-5.077 0-7.616 0-9.194-.865a7.01 7.01 0 0 1-3.643-6.278c.033-1.798 1.296-3.998 3.82-8.399zm69.098-9.266c1.775-2.962 6.066-2.962 7.84 0l1.996 3.33a4.57 4.57 0 0 0 5.031 2.084l3.765-.944c3.349-.84 6.383 2.195 5.544 5.544l-.943 3.766a4.57 4.57 0 0 0 2.083 5.03l3.331 1.996c2.961 1.775 2.961 6.066 0 7.84l-3.331 1.996a4.57 4.57 0 0 0-2.083 5.03l.943 3.766c.839 3.35-2.195 6.383-5.544 5.544l-3.765-.944a4.57 4.57 0 0 0-5.031 2.084l-1.996 3.33c-1.774 2.962-6.065 2.962-7.84 0l-1.995-3.33a4.57 4.57 0 0 0-5.031-2.084l-3.766.944c-3.349.84-6.383-2.195-5.544-5.544l.944-3.765a4.57 4.57 0 0 0-2.084-5.031l-3.33-1.996c-2.962-1.774-2.962-6.065 0-7.84l3.33-1.995a4.57 4.57 0 0 0 2.084-5.031l-.944-3.766c-.839-3.349 2.195-6.383 5.544-5.544l3.766.944a4.57 4.57 0 0 0 5.031-2.084z"/><path fill="#404759" d="M486.802 8.5c10.563-4.587 21.285 6.134 16.697 16.698l-.759 1.746a12.7 12.7 0 0 0 0 10.112l.759 1.747c4.588 10.563-6.134 21.284-16.697 16.696l-1.747-.758a12.7 12.7 0 0 0-10.111 0l-1.747.758c-10.563 4.588-21.284-6.133-16.697-16.696l.759-1.747a12.7 12.7 0 0 0 0-10.112l-.759-1.746c-4.587-10.564 6.134-21.285 16.697-16.697l1.747.758a12.7 12.7 0 0 0 10.112 0z"/><path fill="#626b81" d="M19.556 12.09c8.934-8.934 23.419-8.934 32.353 0 8.934 8.935 8.934 23.42 0 32.354l-7.466 7.466c-8.934 8.934-23.42 8.934-32.354 0s-8.934-23.42 0-32.353z"/><path fill="#2c3240" d="M70.736 30.797c0-13.288 11.311-24.06 25.263-24.06s25.264 10.772 25.264 24.06v16.842c0 5.315-4.525 9.624-10.106 9.624-1.654 0-3.215-.378-4.593-1.05a61 61 0 0 1-2.107-1.093c-2.476-1.325-4.99-2.669-7.738-2.669H95.28c-2.749 0-5.262 1.344-7.738 2.67-.704.376-1.404.75-2.107 1.093a10.5 10.5 0 0 1-4.593 1.05c-5.581 0-10.106-4.31-10.106-9.625z"/><path fill="#626b81" d="M150.47 11.074c2.958-2.15 4.437-3.224 6.014-3.758a10.96 10.96 0 0 1 7.032 0c1.576.534 3.055 1.609 6.014 3.758l6.652 4.832c1.757 1.276 2.635 1.914 3.351 2.68a11 11 0 0 1 2.332 3.846c.347.989.507 2.063.825 4.21l1.232 8.305c.559 3.768.838 5.652.556 7.35a10.95 10.95 0 0 1-3.495 6.361c-1.282 1.149-3.022 1.924-6.501 3.474l-7.884 3.511c-2.1.935-3.15 1.403-4.23 1.642-1.56.346-3.177.346-4.737 0-1.08-.239-2.129-.706-4.229-1.642l-7.884-3.511c-3.48-1.55-5.22-2.325-6.502-3.474a10.95 10.95 0 0 1-3.495-6.361c-.282-1.698-.002-3.582.556-7.35l1.232-8.305c.319-2.147.478-3.221.826-4.21a10.9 10.9 0 0 1 2.331-3.846c.716-.766 1.594-1.404 3.351-2.68zm48.077 8.012c0-7.379 5.981-13.36 13.359-13.36h24.187c7.378 0 13.359 5.981 13.359 13.36 0 6.084-4.068 11.219-9.632 12.832a.085.085 0 0 0 0 .163c5.564 1.613 9.632 6.748 9.632 12.833 0 7.378-5.981 13.36-13.359 13.36h-24.187c-7.378 0-13.359-5.982-13.359-13.36 0-6.045 4.015-11.152 9.524-12.8a.12.12 0 0 0 .085-.114.12.12 0 0 0-.085-.114c-5.509-1.648-9.524-6.755-9.524-12.8"/><path fill="#2c3240" d="M410.117 72.33a10.105 10.105 0 0 1 11.879 0l16.392 11.91a10.105 10.105 0 0 1 3.671 11.297l-6.261 19.27a10.11 10.11 0 0 1-9.611 6.983h-20.261a10.11 10.11 0 0 1-9.611-6.983l-6.261-19.27a10.105 10.105 0 0 1 3.671-11.298zm60.865 8.21c2.549-4.443 3.824-6.665 5.37-7.604a7.03 7.03 0 0 1 7.295 0c1.545.939 2.82 3.16 5.369 7.603l13.772 24.004c2.525 4.4 3.787 6.6 3.821 8.398a7.01 7.01 0 0 1-3.643 6.278c-1.578.865-4.117.865-9.195.865h-27.544c-5.077 0-7.616 0-9.194-.865a7.01 7.01 0 0 1-3.643-6.278c.033-1.798 1.296-3.998 3.82-8.398zM28.08 71.274c1.775-2.962 6.066-2.962 7.84 0l1.996 3.33a4.57 4.57 0 0 0 5.03 2.084l3.766-.944c3.35-.84 6.383 2.195 5.544 5.544l-.944 3.766a4.57 4.57 0 0 0 2.084 5.03l3.33 1.996c2.962 1.775 2.962 6.066 0 7.84l-3.33 1.996a4.57 4.57 0 0 0-2.084 5.031l.944 3.765c.84 3.349-2.195 6.383-5.544 5.544l-3.765-.943a4.57 4.57 0 0 0-5.031 2.083l-1.996 3.331c-1.774 2.961-6.065 2.961-7.84 0l-1.995-3.331a4.57 4.57 0 0 0-5.031-2.083l-3.766.943c-3.349.839-6.383-2.195-5.544-5.544l.944-3.765a4.57 4.57 0 0 0-2.084-5.031l-3.33-1.996c-2.962-1.774-2.962-6.065 0-7.84l3.33-1.995a4.57 4.57 0 0 0 2.084-5.031l-.944-3.766c-.84-3.349 2.195-6.383 5.544-5.544l3.766.944a4.57 4.57 0 0 0 5.03-2.084z"/><path fill="#626b81" d="M124.665 88.771c1.313 2.276 1.97 3.413 2.302 4.602a9.8 9.8 0 0 1 0 5.254c-.332 1.188-.989 2.326-2.302 4.601l-4.002 6.932c-1.313 2.276-1.97 3.414-2.833 4.295a9.76 9.76 0 0 1-4.55 2.627c-1.195.307-2.508.307-5.135.307h-24.29c-2.626 0-3.94 0-5.135-.307a9.76 9.76 0 0 1-4.55-2.627c-.863-.881-1.52-2.019-2.833-4.295l-4.002-6.932c-1.313-2.275-1.97-3.413-2.301-4.601a9.77 9.77 0 0 1 0-5.254c.331-1.189.988-2.326 2.301-4.602l4.002-6.932c1.314-2.275 1.97-3.413 2.834-4.295a9.77 9.77 0 0 1 4.549-2.627c1.195-.307 2.509-.307 5.136-.307h24.289c2.627 0 3.94 0 5.135.307a9.77 9.77 0 0 1 4.55 2.627c.863.882 1.52 2.02 2.833 4.295zM6.736 158.797c0-13.288 11.311-24.06 25.264-24.06s25.263 10.772 25.263 24.06v16.842c0 5.315-4.525 9.624-10.106 9.624a10.46 10.46 0 0 1-4.593-1.05 60 60 0 0 1-2.107-1.093c-2.476-1.325-4.99-2.669-7.738-2.669H31.28c-2.749 0-5.262 1.344-7.738 2.669-.704.377-1.404.752-2.107 1.093a10.46 10.46 0 0 1-4.593 1.05c-5.581 0-10.106-4.309-10.106-9.624z"/><path fill="#2c3240" d="M86.47 139.074c2.958-2.149 4.437-3.224 6.014-3.758a10.97 10.97 0 0 1 7.032 0c1.576.534 3.055 1.609 6.014 3.758l6.652 4.832c1.757 1.276 2.635 1.914 3.351 2.68a10.95 10.95 0 0 1 2.332 3.846c.347.989.507 2.063.825 4.21l1.232 8.306c.559 3.767.838 5.651.556 7.349a10.95 10.95 0 0 1-3.495 6.361c-1.282 1.149-3.022 1.924-6.501 3.474l-7.884 3.511c-2.1.935-3.15 1.403-4.23 1.642a10.9 10.9 0 0 1-4.737 0c-1.08-.239-2.13-.707-4.23-1.642l-7.883-3.511c-3.48-1.55-5.22-2.325-6.502-3.474a10.95 10.95 0 0 1-3.495-6.361c-.282-1.698-.002-3.582.556-7.349l1.232-8.306c.319-2.147.478-3.221.826-4.21a10.95 10.95 0 0 1 2.331-3.846c.716-.766 1.595-1.404 3.351-2.68z"/><path fill="#626b81" d="M444.665 152.771c1.313 2.276 1.97 3.413 2.302 4.602a9.8 9.8 0 0 1 0 5.254c-.332 1.188-.989 2.326-2.302 4.601l-4.002 6.932c-1.313 2.276-1.97 3.414-2.833 4.295a9.76 9.76 0 0 1-4.55 2.627c-1.195.307-2.508.307-5.135.307h-24.289c-2.627 0-3.941 0-5.136-.307a9.76 9.76 0 0 1-4.549-2.627c-.864-.881-1.52-2.019-2.834-4.295l-4.001-6.932c-1.314-2.275-1.971-3.413-2.302-4.601a9.77 9.77 0 0 1 0-5.254c.331-1.189.988-2.326 2.302-4.602l4.001-6.932c1.314-2.275 1.97-3.413 2.834-4.295a9.77 9.77 0 0 1 4.549-2.627c1.195-.307 2.509-.307 5.136-.307h24.289c2.627 0 3.94 0 5.135.307a9.77 9.77 0 0 1 4.55 2.627c.863.882 1.52 2.02 2.833 4.295zm22.891-12.681c8.934-8.934 23.419-8.934 32.353 0s8.934 23.42 0 32.354l-7.466 7.466c-8.934 8.934-23.419 8.934-32.354 0s-8.934-23.419 0-32.354z"/><g filter="url(#b)"><path fill="#ee728d" d="m151.198 112.432.432-2.256h13.008q4.464 0 7.584 1.68 3.168 1.68 4.8 4.704 1.68 2.976 1.68 6.912 0 4.464-1.536 7.92t-4.224 5.856a18.4 18.4 0 0 1-6.144 3.552q-3.408 1.2-7.248 1.2h-13.536l.432-2.256 3.984-.48 2.688-14.208q.576-3.024 1.104-6.048.528-3.072 1.056-6.096zm7.152 14.688q-.624 3.072-1.152 6.192l-1.056 6.24h3.408q3.168 0 5.568-1.344a13 13 0 0 0 4.128-3.696q1.68-2.304 2.544-5.232t.864-6.096q0-5.136-2.64-7.824-2.592-2.736-7.44-2.736h-1.488zm27.759 7.152q0 2.208.72 3.264.768 1.008 2.016 1.008 1.104 0 2.448-.816 1.344-.864 3.12-2.736l2.688-12.528a6.2 6.2 0 0 0-1.344-.528 4.1 4.1 0 0 0-1.392-.24q-2.016 0-4.32 2.208-1.104 1.104-2.016 2.832a16.7 16.7 0 0 0-1.44 3.648 16.4 16.4 0 0 0-.48 3.888m10.992 8.4q-1.392 0-2.304-.864-.912-.912-.912-2.688v-.816q.048-.432.096-.816-2.016 2.304-4.224 3.744t-4.176 1.44q-1.824 0-3.312-1.392-1.488-1.44-1.488-4.752 0-2.544.96-5.136a21.2 21.2 0 0 1 2.592-4.896 24.2 24.2 0 0 1 3.648-4.176q2.016-1.872 4.176-2.928t4.128-1.056q.96 0 1.728.384.768.336 1.488 1.008l2.928-1.68.816.528-3.84 16.848q-.384 1.632-.384 2.4 0 1.008 1.008 1.008.816 0 1.824-.864 1.056-.912 2.256-2.4l1.296.96q-.912 1.44-2.208 2.88a14 14 0 0 1-2.832 2.352 6.3 6.3 0 0 1-3.264.912m24.334-7.056q0 2.928-2.4 4.992-2.352 2.064-6.72 2.064-2.928 0-4.56-1.296t-1.968-3.648q.384-1.872 2.256-1.872 2.256 0 2.88 2.544l.528 2.352h.48q2.16 0 3.312-1.008 1.2-1.008 1.2-2.64 0-1.152-.672-2.208-.624-1.056-2.544-2.496-1.92-1.536-3.12-3.024-1.2-1.536-1.2-3.84 0-1.968 1.008-3.6t2.832-2.592q1.872-1.008 4.464-1.008 5.424 0 6.432 4.512-.384 1.824-2.256 1.824-.912 0-1.68-.624-.72-.624-1.2-1.968l-.624-1.824h-.096q-2.208 0-3.12 1.104t-.912 2.592.864 2.544 2.784 2.544q2.208 1.68 3.12 3.072t.912 3.504m3.311 6.768-.576-.48 4.416-21.552q.48-2.208.912-4.368.432-2.208.768-4.416l-3.84-.432.192-1.632 9.168-2.544.576.48-3.408 16.272q2.448-2.4 5.088-3.888 2.688-1.488 4.896-1.488 1.536 0 2.448.912t.912 2.736q0 1.056-.24 2.208a32 32 0 0 1-.48 2.256l-2.208 8.976q-.192.816-.336 1.44t-.144 1.008q0 .96.816.96 1.68 0 4.128-3.216l1.344.96q-.912 1.488-2.304 2.928a12.8 12.8 0 0 1-2.976 2.304 7.4 7.4 0 0 1-3.504.864q-1.44 0-2.256-.672-.768-.672-.768-1.872 0-.96.24-1.92t.576-2.256l1.92-7.824q.288-1.152.48-2.16.192-1.056.192-1.728 0-1.008-.384-1.44t-1.056-.432q-1.2 0-2.928.912-1.68.864-3.792 2.736l-1.248 5.76a233 233 0 0 0-1.104 5.28q-.432 2.4-.816 4.944zm32.282-5.472q0 1.152.576 1.824.624.672 1.776.672 2.592 0 4.992-2.736 1.536-1.728 2.544-4.512 1.008-2.832 1.008-5.52 0-2.112-.768-3.168-.72-1.104-1.968-1.104-1.344 0-2.88 1.056-1.536 1.008-3.312 2.832l-1.008 4.464q-.48 2.4-.72 3.744-.24 1.296-.24 2.448m-.336 5.76q-2.064 0-3.456-1.152-1.344-1.2-1.344-3.552 0-1.68.336-3.648.384-2.016.864-4.224l3.696-18.48-4.032-.48.288-1.632 9.168-2.544.624.48L259.38 124q2.112-2.64 4.56-4.128 2.448-1.536 4.512-1.536 2.016 0 3.36 1.44t1.344 4.848q0 2.592-.96 5.184a20.7 20.7 0 0 1-2.544 4.944 20.4 20.4 0 0 1-3.696 4.08 18.7 18.7 0 0 1-4.512 2.832q-2.352 1.008-4.752 1.008m27.143 0q-2.4 0-4.416-.96-1.968-1.008-3.12-2.976t-1.152-4.896q0-3.12 1.008-5.904 1.056-2.784 2.88-4.944t4.224-3.408 5.184-1.248q3.696 0 6.096 2.208 2.4 2.16 2.4 6.576 0 3.072-1.008 5.904a17.3 17.3 0 0 1-2.784 4.992 13.3 13.3 0 0 1-4.176 3.408 11 11 0 0 1-5.136 1.248m.528-2.256q1.584 0 2.88-1.152 1.344-1.2 2.304-3.168.96-2.016 1.44-4.416.528-2.448.528-4.896 0-3.408-1.008-4.8t-2.64-1.392q-1.584 0-2.928 1.152-1.296 1.152-2.304 3.12-.96 1.92-1.536 4.368a23.6 23.6 0 0 0-.528 4.992q0 3.408 1.056 4.8 1.104 1.392 2.736 1.392m19.908-6.144q0 2.208.72 3.264.768 1.008 2.016 1.008 1.104 0 2.448-.816 1.344-.864 3.12-2.736l2.688-12.528a6.2 6.2 0 0 0-1.344-.528 4.1 4.1 0 0 0-1.392-.24q-2.016 0-4.32 2.208-1.104 1.104-2.016 2.832a16.7 16.7 0 0 0-1.44 3.648 16.4 16.4 0 0 0-.48 3.888m10.992 8.4q-1.392 0-2.304-.864-.912-.912-.912-2.688v-.816q.048-.432.096-.816-2.016 2.304-4.224 3.744t-4.176 1.44q-1.824 0-3.312-1.392-1.488-1.44-1.488-4.752 0-2.544.96-5.136a21.2 21.2 0 0 1 2.592-4.896 24.2 24.2 0 0 1 3.648-4.176q2.016-1.872 4.176-2.928t4.128-1.056q.96 0 1.728.384.768.336 1.488 1.008l2.928-1.68.816.528-3.84 16.848q-.384 1.632-.384 2.4 0 1.008 1.008 1.008.816 0 1.824-.864 1.056-.912 2.256-2.4l1.296.96q-.912 1.44-2.208 2.88a14 14 0 0 1-2.832 2.352 6.3 6.3 0 0 1-3.264.912m10.267-.768 3.984-18.96-4.032-.432.24-1.632 8.544-2.592.768.624-1.152 6.816a37 37 0 0 1 2.304-3.696q1.248-1.68 2.592-2.688t2.688-1.008q1.152 0 2.064.48.96.48 1.44 1.44-.048 1.44-.768 2.4t-2.112.96q-.816 0-1.632-.432-.768-.432-1.584-1.2a22 22 0 0 0-3.264 3.888 37 37 0 0 0-2.496 4.416l-.336 1.536a286 286 0 0 0-1.008 5.088q-.48 2.496-.96 5.088l-4.704.384zm22.031-7.776q0 2.352.816 3.408.816 1.008 2.064 1.008 1.152 0 2.496-.864 1.392-.912 3.168-2.832l2.496-12.24a4.6 4.6 0 0 0-2.784-.912q-1.2 0-2.448.624-1.2.624-2.112 1.632-1.104 1.104-1.968 2.832a19.7 19.7 0 0 0-1.296 3.648 16.8 16.8 0 0 0-.432 3.696m13.536 1.248a24 24 0 0 0-.288 1.488 6 6 0 0 0-.096.96q0 .48.288.768.288.24.672.24.768 0 1.872-.864t2.256-2.352l1.296.96a16 16 0 0 1-2.256 2.928 13.3 13.3 0 0 1-2.928 2.304 6.56 6.56 0 0 1-3.264.864q-1.44 0-2.304-.864t-.864-2.352q0-.816.144-2.112-2.016 2.352-4.368 3.84-2.304 1.488-4.32 1.488-1.824 0-3.264-1.44-1.392-1.488-1.392-4.992 0-2.448.912-4.944a21 21 0 0 1 2.496-4.848 23.8 23.8 0 0 1 3.552-4.176q2.016-1.824 4.128-2.88 2.16-1.056 4.224-1.056 1.056 0 2.064.432l1.392-7.152-4.224-.48.24-1.632 9.168-2.544.672.48z"/></g></g><defs><clipPath id="a"><path fill="#fff" d="M0 0h512v256H0z"/></clipPath><filter id="b" width="237.084" height="51.712" x="138.014" y="100.96" color-interpolation-filters="sRGB" filterUnits="userSpaceOnUse"><feFlood flood-opacity="0" result="BackgroundImageFix"/><feColorMatrix in="SourceAlpha" result="hardAlpha" values="0 0 0 0 0 0 0 0 0 0 0 0 0 0 0 0 0 0 127 0"/><feOffset dy="2"/><feGaussianBlur stdDeviation="4"/><feComposite in2="hardAlpha" operator="out"/><feColorMatrix values="0 0 0 0 0 0 0 0 0 0 0 0 0 0 0 0 0 0 0.5 0"/><feBlend in2="BackgroundImageFix" result="effect1_dropShadow_2094_721"/><feBlend in="SourceGraphic" in2="effect1_dropShadow_2094_721" result="shape"/></filter></defs></svg>